<svg width="24" height="25" viewBox="0 0 24 25" fill="none" xmlns="http://www.w3.org/2000/svg">
<path fill-rule="evenodd" clip-rule="evenodd" d="M14.4555 0.842654L22.455 7.06465C23.43 7.82215 24 8.98765 24 10.2222V21.0222C24 21.8178 23.6839 22.5809 23.1213 23.1435C22.5587 23.7061 21.7957 24.0222 21 24.0222H3C2.20435 24.0222 1.44129 23.7061 0.87868 23.1435C0.316071 22.5809 0 21.8178 0 21.0222V10.2222C-0.000286656 9.61304 0.138627 9.01191 0.406134 8.46468C0.673641 7.91745 1.06267 7.43858 1.5435 7.06465L9.5445 0.842654C10.2465 0.296516 11.1106 0 12 0C12.8894 0 13.7535 0.296516 14.4555 0.842654ZM18.6006 17.5701C19.1917 17.2136 19.3819 16.4453 19.0254 15.8541C18.6688 15.263 17.9005 15.0728 17.3094 15.4294C15.8907 16.2851 13.9554 16.7494 11.9539 16.7494C9.95227 16.7494 8.018 16.2851 6.60103 15.4296C6.01002 15.0728 5.24168 15.2627 4.88488 15.8537C4.52808 16.4447 4.71794 17.2131 5.30895 17.5699C7.20397 18.7139 9.61221 19.2494 11.9539 19.2494C14.2956 19.2494 16.7043 18.7139 18.6006 17.5701Z" fill="#314797"/>
</svg>
