<svg width="24" height="25" viewBox="0 0 24 25" fill="none" xmlns="http://www.w3.org/2000/svg">
<path d="M22.455 7.06465L14.4555 0.842654C13.7535 0.296516 12.8894 0 12 0C11.1106 0 10.2465 0.296516 9.5445 0.842654L1.5435 7.06465C1.06267 7.43858 0.67364 7.91745 0.406133 8.46468C0.138626 9.01191 -0.000287108 9.61304 4.45522e-07 10.2222V21.0222C4.45522e-07 21.8178 0.316071 22.5809 0.87868 23.1435C1.44129 23.7061 2.20435 24.0222 3 24.0222H21C21.7957 24.0222 22.5587 23.7061 23.1213 23.1435C23.6839 22.5809 24 21.8178 24 21.0222V10.2222C24 8.98765 23.43 7.82215 22.455 7.06465Z" fill="#4B5563"/>
<path d="M17.955 16.4998C14.64 18.4993 9.26702 18.4993 5.95502 16.4998" stroke="white" stroke-width="2.5" stroke-linecap="round" stroke-linejoin="round"/>
</svg>
