<svg width="26" height="30" viewBox="0 0 26 30" fill="none" xmlns="http://www.w3.org/2000/svg">
<path d="M8.75 14.375H17.75" stroke="#4B5563" stroke-width="2.5" stroke-linecap="round" stroke-linejoin="round"/>
<path d="M8.75 18.875H17.75" stroke="#4B5563" stroke-width="2.5" stroke-linecap="round" stroke-linejoin="round"/>
<path d="M3.125 2H23.375C23.6734 2 23.9595 2.11853 24.1705 2.32951C24.3815 2.54048 24.5 2.82663 24.5 3.125V24.5C24.5 25.3951 24.1444 26.2536 23.5115 26.8865C22.8786 27.5194 22.0201 27.875 21.125 27.875H5.375C4.47989 27.875 3.62145 27.5194 2.98851 26.8865C2.35558 26.2536 2 25.3951 2 24.5V3.125C2 2.82663 2.11853 2.54048 2.32951 2.32951C2.54048 2.11853 2.82663 2 3.125 2Z" stroke="#4B5563" stroke-width="2.5" stroke-linecap="round" stroke-linejoin="round"/>
</svg>
