<svg width="22" height="28" viewBox="0 0 22 28" fill="none" xmlns="http://www.w3.org/2000/svg">
<path d="M16.3333 7.33333C16.3333 8.74782 15.7714 10.1044 14.7712 11.1046C13.771 12.1048 12.4145 12.6667 11 12.6667C9.5855 12.6667 8.22895 12.1048 7.22875 11.1046C6.22856 10.1044 5.66666 8.74782 5.66666 7.33333C5.66666 5.91885 6.22856 4.56229 7.22875 3.5621C8.22895 2.5619 9.5855 2 11 2C12.4145 2 13.771 2.5619 14.7712 3.5621C15.7714 4.56229 16.3333 5.91885 16.3333 7.33333V7.33333ZM11 16.6667C8.52464 16.6667 6.15067 17.65 4.40033 19.4003C2.64999 21.1507 1.66666 23.5246 1.66666 26H20.3333C20.3333 23.5246 19.35 21.1507 17.5997 19.4003C15.8493 17.65 13.4753 16.6667 11 16.6667V16.6667Z" stroke="#4B5563" stroke-width="2.5" stroke-linecap="round" stroke-linejoin="round"/>
</svg>
