<svg width="32" height="30" viewBox="0 0 32 30" fill="none" xmlns="http://www.w3.org/2000/svg">
<path d="M30.0903 10.4449L30.0907 10.4449C30.5733 10.4869 30.9672 10.7999 31.1087 11.2221L31.5828 11.0633L31.1089 11.2227C31.2504 11.6434 31.1217 12.1075 30.7667 12.4071L30.7663 12.4075L23.8579 18.2516L23.624 18.4495L23.6942 18.7478L25.7312 27.4049C25.8323 27.8356 25.6615 28.2884 25.277 28.5572L25.2769 28.5573C24.8903 28.8277 24.3731 28.8495 23.9646 28.6124L23.9634 28.6117L16.0827 24.0659L15.8329 23.9219L15.5831 24.0659L7.69939 28.6117L7.69917 28.6118C7.50926 28.7215 7.29864 28.7765 7.08642 28.7765C6.83969 28.7765 6.59559 28.7024 6.38673 28.5569C6.00321 28.2894 5.83179 27.8372 5.93307 27.4047L7.97007 18.7478L8.04025 18.4495L7.80632 18.2516L0.897951 12.4064L0.896993 12.4056C0.543336 12.1078 0.414988 11.6433 0.556674 11.2229C0.699184 10.8001 1.09211 10.4881 1.57399 10.4449C1.57421 10.4448 1.57444 10.4448 1.57467 10.4448L10.7148 9.64424L11.0088 9.61849L11.1284 9.34863L14.7421 1.18973C14.7421 1.18958 14.7422 1.18942 14.7423 1.18926C14.9259 0.776814 15.3494 0.5 15.8328 0.5C16.3163 0.5 16.7399 0.776888 16.9234 1.18798C16.9235 1.18823 16.9237 1.18848 16.9238 1.18873L20.5373 9.34861L20.6568 9.61848L20.9508 9.64424L30.0903 10.4449Z" stroke="black"/>
</svg>
