<svg width="300" height="179" viewBox="0 0 300 179" fill="none" xmlns="http://www.w3.org/2000/svg">
<path d="M46.9339 160.559C46.9339 160.559 4.34551 142.599 0.236454 94.8789C-3.87261 47.1591 46.9339 44.5933 46.9339 44.5933C46.9339 44.5933 83.9154 44.1831 116.208 37.9251C148.501 31.6671 184.929 8.16529 184.929 8.16529C184.929 8.16529 245.517 -21.2819 274.769 31.667C304.02 84.616 273.388 143.927 240.144 155.199C212.761 164.486 142.875 188.528 46.9339 160.559Z" fill="#B3C4FF"/>
<path d="M260.774 155.291L224.887 68.2713C222.262 61.9091 216.063 57.7544 209.18 57.7544H156.713H140.283H87.8161C80.9329 57.7544 74.7335 61.9091 72.1092 68.2713L36.2216 155.291C31.6111 166.479 39.8293 178.76 51.9285 178.76H140.283H156.713H245.067C257.167 178.76 265.391 166.472 260.774 155.291Z" fill="#F8AC1D"/>
<path d="M260.774 150.055L224.887 63.0357C222.262 56.6735 216.063 52.5189 209.18 52.5189H156.713H140.283H87.8161C80.9329 52.5189 74.7335 56.6735 72.1092 63.0357L36.2216 150.055C31.6111 161.243 39.8293 173.525 51.9285 173.525H140.283H156.713H245.067C257.167 173.531 265.391 161.243 260.774 150.055Z" fill="#2A4399"/>
<path d="M199.366 137.2C204.728 137.2 209.075 134.789 209.075 131.814C209.075 128.84 204.728 126.429 199.366 126.429C194.004 126.429 189.657 128.84 189.657 131.814C189.657 134.789 194.004 137.2 199.366 137.2Z" fill="#F8AC1D"/>
<mask id="mask0_290_48" style="mask-type:alpha" maskUnits="userSpaceOnUse" x="34" y="52" width="229" height="122">
<path d="M260.774 150.055L224.887 63.0357C222.262 56.6735 216.063 52.5189 209.18 52.5189H156.713H140.283H87.8161C80.9329 52.5189 74.7335 56.6735 72.1092 63.0357L36.2216 150.055C31.6111 161.243 39.8293 173.525 51.9285 173.525H140.283H156.713H245.067C257.167 173.531 265.391 161.243 260.774 150.055Z" fill="#7ABA60"/>
</mask>
<g mask="url(#mask0_290_48)">
<path d="M256.138 129.211H224.959C223.982 129.211 223.09 128.657 222.679 127.778C219.847 121.709 210.756 117.378 199.673 117.378C199.601 117.378 199.529 117.378 199.464 117.378L196.573 104.211C196.228 102.629 197.432 101.131 199.047 101.131H240.613C242.013 101.131 243.147 99.9979 243.147 98.5978V98.4611C243.147 97.061 242.013 95.9279 240.613 95.9279H196.788C195.596 95.9279 194.567 95.1009 194.313 93.9352L192.275 84.6557C191.93 83.0732 193.135 81.5755 194.749 81.5755H231.985C233.385 81.5755 234.518 80.4424 234.518 79.0423V78.9056C234.518 77.5055 233.385 76.3724 231.985 76.3724H192.496C191.305 76.3724 190.276 75.5454 190.022 74.3798L185.288 52.7991C184.988 51.4315 183.634 50.5654 182.266 50.865L182.129 50.8976C180.762 51.1971 179.896 52.5516 180.195 53.9191L184.448 73.2988C184.793 74.8812 183.588 76.3789 181.973 76.3789H126.068C124.459 76.3789 123.261 74.9007 123.587 73.3313L127.741 53.2353C128.028 51.8613 127.142 50.5199 125.775 50.2398L125.638 50.2138C124.264 49.9272 122.922 50.8129 122.642 52.1804L118.051 74.3602C117.81 75.5389 116.769 76.3854 115.57 76.3854H94.7515C94.7255 76.3854 94.6799 76.3855 94.6408 76.3268C94.6017 76.2682 94.6147 76.2292 94.6278 76.2031L96.5228 71.0977C96.6009 70.8828 96.6595 70.6549 96.6725 70.4205C96.9005 66.8649 94.2371 64.436 91.3262 64.436C91.3132 64.436 91.3001 64.436 91.2806 64.436H71.2888C69.8888 64.436 68.7557 65.5691 68.7557 66.9691V67.1059C68.7557 68.5059 69.8888 69.639 71.2888 69.639H91.3001C91.3262 69.6455 91.3718 69.639 91.4109 69.6977C91.4499 69.7563 91.4369 69.7953 91.4239 69.8214L89.5354 74.9202C89.4573 75.1351 89.3987 75.3631 89.3791 75.5975C89.1447 79.1465 91.7951 81.5885 94.745 81.5885H113.428C115.036 81.5885 116.235 83.0668 115.909 84.6361L115.466 86.7721C115.225 87.9507 114.183 88.7973 112.985 88.7973H63.2596C61.8595 88.7973 60.7264 89.9304 60.7264 91.3304V91.4672C60.7264 92.8673 61.8595 94.0004 63.2596 94.0004H110.862C112.471 94.0004 113.669 95.4786 113.343 97.048L107.105 127.198C106.864 128.377 105.822 129.224 104.624 129.224H42.9878C41.5877 129.224 40.4546 130.357 40.4546 131.757V131.894C40.4546 133.294 41.5877 134.427 42.9878 134.427H102.501C104.109 134.427 105.307 135.905 104.982 137.474L97.4214 174.013C97.1349 175.387 98.0205 176.729 99.388 177.009L99.5248 177.035C100.899 177.321 102.24 176.436 102.52 175.068L110.51 136.439C110.751 135.26 111.793 134.414 112.992 134.414H174.374C175.35 134.414 176.242 134.967 176.653 135.846C179.485 141.916 188.576 146.246 199.66 146.246C199.881 146.246 200.102 146.239 200.324 146.233L206.132 173.297C206.425 174.664 207.773 175.537 209.147 175.244L209.284 175.218C210.652 174.925 211.524 173.577 211.231 172.203L206.113 148.369C205.82 147.014 206.673 145.66 208.027 145.367C215.139 143.81 220.576 140.307 222.653 135.866C223.07 134.98 223.962 134.414 224.939 134.414H256.118C257.518 134.414 258.652 133.281 258.652 131.881V131.744C258.678 130.344 257.538 129.211 256.138 129.211ZM123.932 81.569H184.226C185.418 81.569 186.447 82.396 186.701 83.5616L188.739 92.8412C189.084 94.4236 187.879 95.9214 186.264 95.9214H162.118C156.309 95.9214 151.608 100.63 151.608 106.432V126.671C151.608 128.071 150.475 129.204 149.074 129.204H115.134C113.526 129.204 112.327 127.726 112.653 126.157L121.457 83.5877C121.692 82.409 122.733 81.569 123.932 81.569ZM174.38 129.211H159.35C157.95 129.211 156.817 128.078 156.817 126.677V106.438C156.817 103.508 159.194 101.137 162.118 101.137H188.518C189.709 101.137 190.738 101.965 190.992 103.13L193.629 115.158C193.929 116.525 193.063 117.893 191.689 118.179C184.382 119.69 178.782 123.246 176.666 127.765C176.255 128.644 175.363 129.211 174.38 129.211ZM199.673 141.043C190.816 141.043 180.951 137.253 180.951 131.815C180.951 126.378 190.816 122.588 199.673 122.588C208.529 122.588 218.395 126.378 218.395 131.815C218.388 137.253 208.522 141.043 199.673 141.043Z" fill="white"/>
</g>
<path opacity="0.3" d="M148.495 103.24C179.249 103.24 204.179 91.6914 204.179 77.4458C204.179 63.2002 179.249 51.6519 148.495 51.6519C117.742 51.6519 92.8115 63.2002 92.8115 77.4458C92.8115 91.6914 117.742 103.24 148.495 103.24Z" fill="white"/>
<path opacity="0.35" d="M148.495 94.319C168.614 94.319 184.924 86.7649 184.924 77.4464C184.924 68.128 168.614 60.5739 148.495 60.5739C128.377 60.5739 112.067 68.128 112.067 77.4464C112.067 86.7649 128.377 94.319 148.495 94.319Z" fill="white"/>
<path d="M203.492 138.902H96.661C93.4258 138.902 90.7915 136.268 90.7915 133.033V45.7285H209.362V133.033C209.362 136.291 206.727 138.902 203.492 138.902Z" fill="#E06738"/>
<path d="M170.302 138.465H129.976V100.628C129.976 98.2125 132.616 96.2628 135.887 96.2628H164.391C167.662 96.2628 170.302 98.2125 170.302 100.628V138.465Z" fill="white"/>
<path d="M202.999 25.0002H150.103H97.1844L76.04 56.4049H150.103H224.166L202.999 25.0002Z" fill="#EDB82C"/>
<path d="M87.5081 75.2631H85.6595C80.3214 75.2631 76 70.9418 76 65.6037V56.4066H97.1675V65.6037C97.1675 70.9418 92.8462 75.2631 87.5081 75.2631Z" fill="#EDB82C"/>
<path d="M108.953 75.2631H107.105C101.605 75.2631 97.168 70.8032 97.168 65.3264V56.4066H118.335V65.881C118.335 71.0574 114.13 75.2631 108.953 75.2631Z" fill="#FDF0B9"/>
<path d="M118.335 25H97.168V56.4047H118.335V25Z" fill="#FDF0B9"/>
<path d="M160.672 25H139.504V56.4047H160.672V25Z" fill="#FDF0B9"/>
<path d="M202.982 25H181.814V56.4047H202.982V25Z" fill="#FDF0B9"/>
<path d="M129.844 75.2631H127.995C122.657 75.2631 118.336 70.9418 118.336 65.6037V56.4066H139.503V65.6037C139.503 70.9418 135.182 75.2631 129.844 75.2631Z" fill="#EDB82C"/>
<path d="M150.989 75.2631H149.14C143.802 75.2631 139.48 70.9418 139.48 65.6037V56.4066H160.648V65.6037C160.671 70.9418 156.327 75.2631 150.989 75.2631Z" fill="#FDF0B9"/>
<path d="M172.156 75.2631H170.307C164.969 75.2631 160.647 70.9418 160.647 65.6037V56.4066H181.815V65.6037C181.815 70.9418 177.494 75.2631 172.156 75.2631Z" fill="#EDB82C"/>
<path d="M193.323 75.2631H191.474C186.136 75.2631 181.814 70.9418 181.814 65.6037V56.4066H202.982V65.6037C202.982 70.9418 198.661 75.2631 193.323 75.2631Z" fill="#FDF0B9"/>
<path d="M214.491 75.2631H212.642C207.304 75.2631 202.983 70.9418 202.983 65.6037V56.4066H224.15V65.6037C224.15 70.9418 219.829 75.2631 214.491 75.2631Z" fill="#EDB82C"/>
<path d="M79.1484 119.159H55.7509C54.8457 119.159 54.1099 118.423 54.1099 117.518V108.785C54.1099 107.88 54.8457 107.144 55.7509 107.144H79.1484C80.0536 107.144 80.7895 107.88 80.7895 108.785V117.518C80.796 118.423 80.0601 119.159 79.1484 119.159Z" fill="#E06738"/>
<path d="M79.2065 117.186H55.6982V92.1083H79.2065V117.186ZM57.6518 115.232H77.2529V94.0619H57.6518V115.232Z" fill="#E06738"/>
<path d="M78.7507 87.7455H66.8533H54.9624L50.2021 95.8269H66.8533H83.5044L78.7507 87.7455Z" fill="#EDB82C"/>
<path d="M59.7227 87.7448H54.9624V95.8196H59.7227V87.7448Z" fill="#FDF0B9"/>
<path d="M69.2363 87.7448H64.4761V95.8196H69.2363V87.7448Z" fill="#FDF0B9"/>
<path d="M78.7505 87.7448H73.9902V95.8196H78.7505V87.7448Z" fill="#FDF0B9"/>
<path d="M81.1274 100.678C79.8119 100.678 78.7505 99.61 78.7505 98.3011V95.8265H83.5107V98.3011C83.5042 99.6165 82.4428 100.678 81.1274 100.678Z" fill="#EDB82C"/>
<path d="M76.3671 100.678C75.0517 100.678 73.9902 99.61 73.9902 98.3011V95.8265H78.7505V98.3011C78.7505 99.6165 77.6825 100.678 76.3671 100.678Z" fill="#FDF0B9"/>
<path d="M71.6137 100.678C70.2983 100.678 69.2368 99.61 69.2368 98.3011V95.8265H73.9971V98.3011C73.9906 99.6165 72.9291 100.678 71.6137 100.678Z" fill="#EDB82C"/>
<path d="M66.8529 100.678C65.5375 100.678 64.4761 99.61 64.4761 98.3011V95.8265H69.2363V98.3011C69.2363 99.6165 68.1684 100.678 66.8529 100.678Z" fill="#FDF0B9"/>
<path d="M62.1 100.678C60.7846 100.678 59.7231 99.61 59.7231 98.3011V95.8265H64.4834V98.3011C64.4769 99.6165 63.4089 100.678 62.1 100.678Z" fill="#EDB82C"/>
<path d="M57.3393 100.678C56.0239 100.678 54.9624 99.61 54.9624 98.3011V95.8265H59.7227V98.3011C59.7161 99.6165 58.6547 100.678 57.3393 100.678Z" fill="#FDF0B9"/>
<path d="M52.5859 100.678C51.2704 100.678 50.209 99.61 50.209 98.3011V95.8265H54.9692V98.3011C54.9627 99.6165 53.8948 100.678 52.5859 100.678Z" fill="#EDB82C"/>
<path d="M273.036 46.9773L278.122 73.8523C278.383 75.2263 280.174 75.591 280.955 74.4318L287.539 64.6509L298.869 61.3818C300.211 60.9911 300.413 59.1743 299.182 58.5036L275.159 45.434C274.085 44.8479 272.809 45.7791 273.036 46.9773Z" fill="#EDB82C"/>
<path d="M216.704 19.4074C220.958 19.4074 224.407 15.9583 224.407 11.7037C224.407 7.44907 220.958 4 216.704 4C212.449 4 209 7.44907 209 11.7037C209 15.9583 212.449 19.4074 216.704 19.4074Z" fill="#2A4399"/>
<path d="M12.9736 139.394C19.3106 139.394 24.4477 134.257 24.4477 127.92C24.4477 121.583 19.3106 116.446 12.9736 116.446C6.63665 116.446 1.49951 121.583 1.49951 127.92C1.49951 134.257 6.63665 139.394 12.9736 139.394Z" fill="#F8AC1D"/>
<path d="M77.3837 18.2844C77.1037 17.1774 74.9873 16.6955 72.1481 16.9299C71.5945 16.9755 71.0736 16.6629 70.8522 16.155C69.7126 13.5437 68.2865 11.9027 67.1859 12.1827C66.0789 12.4627 65.597 14.5791 65.8314 17.4183C65.877 17.9719 65.5645 18.4928 65.0565 18.7142C62.4452 19.8538 60.8042 21.2799 61.0842 22.3805C61.3642 23.4875 63.4806 23.9694 66.3198 23.735C66.8734 23.6894 67.3943 24.002 67.6157 24.5099C68.7553 27.1212 70.1814 28.7622 71.282 28.4822C72.3825 28.2022 72.8709 26.0858 72.6365 23.2466C72.5909 22.693 72.9035 22.1721 73.4114 21.9507C76.0227 20.8176 77.6637 19.3915 77.3837 18.2844Z" fill="#EDB82C"/>
</svg>
