<svg width="30" height="30" viewBox="0 0 30 30" fill="none" xmlns="http://www.w3.org/2000/svg">
<circle cx="15" cy="15" r="15" fill="#EF564B"/>
<path d="M19.2986 9.91938H17.2005V9.49599C17.2005 8.79563 16.6871 8.22583 16.056 8.22583H14.5301C13.899 8.22583 13.3856 8.79563 13.3856 9.49599V9.91938H11.2875C10.7616 9.91938 10.3337 10.3942 10.3337 10.9778V12.4597C10.3337 12.6935 10.5045 12.8831 10.7152 12.8831H10.9237L11.2533 20.5645C11.2824 21.2428 11.7845 21.7742 12.3964 21.7742H18.1896C18.8016 21.7742 19.3037 21.2428 19.3328 20.5645L19.6624 12.8831H19.8708C20.0815 12.8831 20.2523 12.6935 20.2523 12.4597V10.9778C20.2523 10.3942 19.8245 9.91938 19.2986 9.91938ZM14.1486 9.49599C14.1486 9.26255 14.3197 9.0726 14.5301 9.0726H16.056C16.2663 9.0726 16.4375 9.26255 16.4375 9.49599V9.91938H14.1486V9.49599ZM11.0967 10.9778C11.0967 10.8611 11.1823 10.7662 11.2875 10.7662H19.2986C19.4038 10.7662 19.4894 10.8611 19.4894 10.9778V12.0363C19.3718 12.0363 11.5839 12.0363 11.0967 12.0363V10.9778ZM18.5707 20.5242C18.561 20.7503 18.3936 20.9274 18.1896 20.9274H12.3964C12.1925 20.9274 12.0251 20.7503 12.0154 20.5242L11.6875 12.8831H18.8985L18.5707 20.5242Z" fill="white"/>
<path d="M15.2931 20.0805C15.5038 20.0805 15.6746 19.891 15.6746 19.6572V14.1531C15.6746 13.9193 15.5038 13.7297 15.2931 13.7297C15.0824 13.7297 14.9116 13.9193 14.9116 14.1531V19.6572C14.9116 19.891 15.0824 20.0805 15.2931 20.0805Z" fill="white"/>
<path d="M17.2006 20.0805C17.4113 20.0805 17.5821 19.891 17.5821 19.6572V14.1531C17.5821 13.9193 17.4113 13.7297 17.2006 13.7297C16.9899 13.7297 16.8191 13.9193 16.8191 14.1531V19.6572C16.8191 19.891 16.9899 20.0805 17.2006 20.0805Z" fill="white"/>
<path d="M13.3856 20.0805C13.5963 20.0805 13.7671 19.891 13.7671 19.6572V14.1531C13.7671 13.9193 13.5963 13.7297 13.3856 13.7297C13.175 13.7297 13.0042 13.9193 13.0042 14.1531V19.6572C13.0042 19.891 13.1749 20.0805 13.3856 20.0805Z" fill="white"/>
</svg>
